<svg width="30" height="30" viewBox="0 0 30 30" fill="none" xmlns="http://www.w3.org/2000/svg">
<path d="M13.5643 0.0643883C8.87684 0.550716 4.76942 3.09954 2.27332 7.0722C-1.26574 12.7031 -0.597772 20.1796 3.87879 25.0488C6.36903 27.7558 9.45106 29.3671 13.1542 29.8945C13.8514 29.9941 16.1542 29.9882 16.8749 29.8886C20.5194 29.3847 23.6014 27.7792 26.0858 25.0839C28.1307 22.8691 29.4374 20.0331 29.8944 16.8456C29.994 16.1542 29.994 13.8456 29.8944 13.1542C29.5487 10.7167 28.7753 8.64837 27.4921 6.71478C26.953 5.89447 26.4081 5.2265 25.6464 4.45892C23.3085 2.09173 20.4139 0.632748 17.08 0.14056C16.3593 0.0350914 14.2792 -0.0117836 13.5643 0.0643883ZM15.9667 7.17767C18.1757 7.53509 20.0448 9.12884 20.7304 11.2499C20.9003 11.7597 21.035 12.58 21.035 13.0605C21.0292 14.5195 19.9218 16.916 17.8065 20.039C16.2128 22.3945 15.8495 22.7929 15.2636 22.8867C14.537 22.9921 14.1386 22.7636 13.4413 21.8144C11.5429 19.2597 9.83191 16.3417 9.31629 14.8007C8.95301 13.7109 8.89441 13.1191 9.05262 12.1581C9.58582 8.87689 12.6854 6.64447 15.9667 7.17767Z" fill="black"/>
<path d="M14.3613 10.4648C13.7871 10.6699 13.3945 11.0273 13.1426 11.5723C13.002 11.8711 12.9785 12 12.9785 12.4219C12.9785 12.8672 13.002 12.9668 13.1719 13.3125C13.3945 13.7637 13.7109 14.0742 14.1738 14.2852C14.6426 14.5078 15.3574 14.5078 15.8262 14.2852C16.2891 14.0742 16.6055 13.7637 16.8281 13.3125C16.998 12.9668 17.0215 12.8672 17.0215 12.4219C17.0215 12.0059 16.998 11.8711 16.8633 11.5898C16.5117 10.8398 15.8965 10.4238 15.0879 10.3887C14.7598 10.377 14.543 10.4004 14.3613 10.4648Z" fill="black"/>
</svg>
