<svg width="30" height="30" viewBox="0 0 30 30" fill="none" xmlns="http://www.w3.org/2000/svg">
<path d="M13.5644 0.0644531C8.87695 0.550781 4.76952 3.09961 2.27343 7.07227C-0.580086 11.6074 -0.750008 17.4844 1.83398 22.1777C3.00585 24.3105 4.68749 26.1387 6.76171 27.5273C8.15624 28.459 10.2773 29.3496 11.8945 29.6719C13.1484 29.9238 13.623 29.9707 15 29.9707C16.3828 29.9707 16.9512 29.9121 18.1172 29.6719C23.2676 28.5996 27.5859 24.7324 29.2324 19.7168C29.7773 18.0645 29.9707 16.8281 29.9707 15C29.9707 13.2363 29.7832 11.9941 29.291 10.459C28.5644 8.17383 27.3574 6.19336 25.6465 4.45898C23.3086 2.0918 20.4141 0.632812 17.0801 0.140625C16.3594 0.0351562 14.2793 -0.0117188 13.5644 0.0644531ZM22.7812 8.16797C23.4375 8.34375 23.9766 8.80078 24.2812 9.43359L24.4629 9.81445V15V20.1855L24.3047 20.5254C24 21.1699 23.5195 21.5918 22.8633 21.7969C22.5 21.9082 22.2891 21.9141 15 21.9141C7.6582 21.9141 7.50585 21.9141 7.13085 21.7969C6.50976 21.6035 6.03515 21.1934 5.70702 20.5664L5.5371 20.2441V15V9.75586L5.70702 9.43359C6.02929 8.81836 6.50976 8.39648 7.10741 8.20898C7.45898 8.09766 7.69921 8.0918 14.9707 8.0918C21.2226 8.08594 22.5234 8.10352 22.7812 8.16797Z" fill="black"/>
<path d="M8.17969 9.7207C8.40235 9.92578 14.959 14.9414 15 14.9414C15.0469 14.9414 21.6152 9.91406 21.8203 9.7207C21.8555 9.69141 19.002 9.66797 15 9.66797C11.0918 9.66797 8.14454 9.69141 8.17969 9.7207Z" fill="black"/>
<path d="M7.03125 14.7773V18.7148L7.2832 18.4746C7.41797 18.3457 8.45508 17.3848 9.58008 16.3477C10.7109 15.3047 11.6367 14.4375 11.6484 14.4141C11.6602 14.3848 7.33008 11.0098 7.11328 10.8809C7.04297 10.8398 7.03125 11.4551 7.03125 14.7773Z" fill="black"/>
<path d="M20.6543 12.5977C19.4004 13.5645 18.3632 14.3789 18.3574 14.4023C18.3515 14.4258 19.3828 15.3984 20.6425 16.5586L22.9394 18.6797L22.957 16.7227C22.9629 15.6445 22.9629 13.8809 22.957 12.8027L22.9394 10.834L20.6543 12.5977Z" fill="black"/>
<path d="M10.248 17.8535L7.60547 20.3027L11.3027 20.3203C13.3359 20.3262 16.6641 20.3262 18.6973 20.3203L22.4004 20.3027L19.752 17.8535C18.2988 16.5117 17.0859 15.4102 17.0566 15.4102C17.0332 15.4102 16.6348 15.6973 16.1719 16.0547C15.3105 16.7168 15.0938 16.8223 14.7773 16.7109C14.6836 16.6816 14.25 16.377 13.8047 16.0312C13.3594 15.6914 12.9727 15.4102 12.9434 15.4102C12.9141 15.4102 11.7012 16.5117 10.248 17.8535Z" fill="black"/>
</svg>
