<svg width="30" height="30" viewBox="0 0 30 30" fill="none" xmlns="http://www.w3.org/2000/svg">
<path d="M13.6348 0.0643997C11.7305 0.24604 10.043 0.732368 8.32616 1.58784C6.80272 2.3437 5.68944 3.14643 4.42967 4.38276C3.2285 5.57221 2.36131 6.77338 1.58788 8.32612C-0.246107 12.0058 -0.492201 16.1777 0.884752 20.0683C1.40038 21.5097 2.42577 23.3261 3.36327 24.4628C4.77538 26.1621 6.39842 27.4511 8.32616 28.4121C10.6113 29.5488 13.043 30.082 15.5273 29.9824C17.7598 29.8886 19.6992 29.3964 21.6738 28.4121C24.0527 27.2343 26.0273 25.4882 27.5098 23.2617C28.0195 22.4941 28.7812 20.9941 29.0918 20.1328C30.1172 17.332 30.2637 14.1093 29.5019 11.2089C29.2148 10.1191 28.9629 9.45112 28.418 8.34956C27.6562 6.80854 26.8535 5.6894 25.6172 4.42963C22.5058 1.27729 18.0176 -0.357475 13.6348 0.0643997ZM9.82616 7.20698C10.0137 7.27729 12.8555 10.0839 12.9844 10.3242C13.1836 10.705 13.1426 10.7753 12.0762 11.8593C11.5371 12.4101 11.0449 12.9492 10.9922 13.0488C10.7695 13.4882 10.8164 14.0097 11.1152 14.4609C12.0937 15.914 14.6719 18.4042 15.8613 19.0429C16.1308 19.1894 16.664 19.2011 16.9805 19.0722C17.1152 19.0136 17.5723 18.6093 18.164 18.0175C19.1426 17.0449 19.2949 16.9394 19.6172 17.0214C19.8164 17.0683 22.6933 19.916 22.8281 20.2031C23.0039 20.5781 22.8047 20.8945 21.873 21.7089C20.8769 22.582 19.7695 22.9511 18.6328 22.7929C17.1035 22.582 14.5898 21.3398 12.7734 19.8867C12.0937 19.3417 10.4297 17.6718 9.89061 16.9921C8.67186 15.4628 7.61717 13.5117 7.23046 12.0996C6.98436 11.1914 7.08983 10.2421 7.541 9.31635C7.7871 8.81831 7.88671 8.68354 8.57225 7.98627C8.98827 7.55854 9.38671 7.20112 9.45702 7.1894C9.52147 7.17768 9.59764 7.1601 9.62108 7.15424C9.64452 7.15424 9.73241 7.17768 9.82616 7.20698Z" fill="black"/>
</svg>
