<svg width="30" height="30" viewBox="0 0 30 30" fill="none" xmlns="http://www.w3.org/2000/svg">
<g clip-path="url(#clip0_38_69)">
<path d="M13.5644 0.0643883C9.80858 0.451107 6.46873 2.13275 3.90233 4.92181C0.281234 8.85345 -0.931657 14.5546 0.761703 19.6874C1.52928 22.0136 2.74217 23.9589 4.51756 25.705C6.87303 28.0195 9.73241 29.4081 13.1543 29.8945C13.8515 29.9941 16.1543 29.9882 16.875 29.8886C20.3086 29.414 23.2676 27.9492 25.6465 25.541C28.0137 23.1445 29.4023 20.3027 29.8945 16.8456C29.9941 16.1542 29.9941 13.8456 29.8945 13.1542C29.6133 11.1796 29.039 9.39837 28.166 7.8222C27.4805 6.57415 26.6836 5.50775 25.6465 4.45892C23.3144 2.09759 20.414 0.632748 17.0801 0.14056C16.3594 0.0350914 14.2793 -0.0117836 13.5644 0.0643883ZM22.0019 9.1054C22.2598 9.21673 22.3828 9.46283 22.3828 9.87298C22.3828 10.248 19.9043 22.0136 19.7754 22.2714C19.5879 22.6347 19.1836 22.7695 18.7734 22.6171C18.6328 22.5644 17.2793 21.5859 15.2988 20.1152L14.8066 19.7519L13.7461 20.7656C12.9668 21.5038 12.6269 21.7968 12.4863 21.8261C12.3808 21.8495 12.2812 21.8554 12.2695 21.8378C12.2519 21.8202 12.293 20.9706 12.3633 19.9394L12.4863 18.0761L12.9023 17.6952C13.125 17.4843 14.7129 16.0488 16.4238 14.5019C18.1406 12.9492 19.541 11.6484 19.541 11.6015C19.541 11.537 19.4765 11.5136 19.3359 11.5195C19.166 11.5253 18.2988 12.0468 14.7832 14.2558C12.3984 15.7617 10.4121 16.9921 10.3769 16.9921C10.2187 16.9921 6.52147 15.8027 6.34569 15.6972C5.97069 15.4628 6.05272 15.1171 6.53905 14.8417C6.66795 14.7714 7.59959 14.3906 8.61327 14.0038C9.62694 13.6113 11.543 12.873 12.8613 12.3632C14.1855 11.8535 16.541 10.9452 18.1055 10.3417C21.5332 9.01751 21.498 9.02923 21.668 9.02337C21.7383 9.02337 21.8906 9.05853 22.0019 9.1054Z" fill="black"/>
</g>
<defs>
<clipPath id="clip0_38_69">
<rect width="30" height="30" fill="white"/>
</clipPath>
</defs>
</svg>
