<svg width="30" height="30" viewBox="0 0 30 30" fill="none" xmlns="http://www.w3.org/2000/svg">
<g clip-path="url(#clip0_38_72)">
<path d="M13.5643 0.0643883C8.87684 0.550716 4.76942 3.09954 2.27332 7.0722C-1.26574 12.7031 -0.597772 20.1796 3.87879 25.0488C6.36903 27.7558 9.45106 29.3671 13.1542 29.8945C13.8514 29.9941 16.1542 29.9882 16.8749 29.8886C20.5194 29.3847 23.6014 27.7792 26.0858 25.0839C28.1307 22.8691 29.4374 20.039 29.8944 16.8456C29.994 16.1542 29.994 13.8456 29.8944 13.1542C29.5487 10.7167 28.7753 8.64837 27.4921 6.71478C26.953 5.89447 26.4081 5.2265 25.6464 4.45892C23.3085 2.09173 20.4139 0.632748 17.08 0.14056C16.3593 0.0350914 14.2792 -0.0117836 13.5643 0.0643883ZM16.371 9.16986C16.7167 9.39837 16.7225 9.4804 16.7577 11.9824C16.787 14.2265 16.787 14.2734 16.9218 14.4785C17.0975 14.7714 17.3319 14.8652 17.5663 14.7421C17.7889 14.6308 18.4276 13.8867 18.8378 13.2714C19.3007 12.5742 19.8749 11.496 20.2499 10.6054C20.4374 10.1484 20.6542 9.73822 20.7479 9.63861L20.9179 9.46283L22.8807 9.44525C24.9374 9.42767 25.2128 9.45111 25.4413 9.67962C25.6171 9.8554 25.5526 10.2538 25.2362 10.916C24.9257 11.5663 24.6093 12.041 23.3143 13.7753C22.078 15.4335 21.9725 15.6503 22.1835 16.0722C22.2362 16.1777 22.8514 16.8398 23.5487 17.5488C25.2304 19.2538 25.6581 19.8984 25.494 20.4492C25.4589 20.5663 25.3651 20.7245 25.2772 20.8066L25.1249 20.9472L23.3143 20.9648C20.6132 20.9882 20.7245 21.0351 18.996 19.1777C18.0409 18.1464 17.7186 17.9882 17.3202 18.3456C17.0448 18.5859 16.8866 19.037 16.8104 19.7988C16.6991 20.8886 16.6171 20.9472 15.2343 20.9413C13.7929 20.9413 12.8554 20.7363 11.7362 20.1796C11.1386 19.8749 10.2831 19.2597 9.76746 18.7617C8.37293 17.4023 6.84364 15.0468 5.29676 11.8652C4.5116 10.2538 4.40613 9.97259 4.48817 9.74408C4.58192 9.46869 4.78113 9.43939 6.58582 9.43939C8.66004 9.43353 8.61317 9.41595 8.98231 10.2187C9.4452 11.2324 10.1132 12.5097 10.4882 13.1132C11.7948 15.1933 12.5331 15.3691 12.7147 13.6464C12.8202 12.6035 12.7616 11.1035 12.5917 10.5702C12.4979 10.2656 12.1639 9.97259 11.8065 9.86712C11.4315 9.76165 11.4081 9.69134 11.6776 9.39837C12.0116 9.03509 12.1054 9.02337 14.2675 9.04095C16.078 9.05267 16.2128 9.05853 16.371 9.16986Z" fill="black"/>
</g>
<defs>
<clipPath id="clip0_38_72">
<rect width="30" height="30" fill="white"/>
</clipPath>
</defs>
</svg>
