<svg width="30" height="30" viewBox="0 0 30 30" fill="none" xmlns="http://www.w3.org/2000/svg">
<g clip-path="url(#clip0_38_75)">
<path d="M13.5643 0.0643883C8.87684 0.550716 4.76942 3.09954 2.27332 7.0722C-1.26574 12.7031 -0.597772 20.1796 3.87879 25.0488C6.36903 27.7558 9.45106 29.3671 13.1542 29.8945C13.8514 29.9941 16.1542 29.9882 16.8749 29.8886C20.5194 29.3847 23.6014 27.7792 26.0858 25.0839C28.1307 22.8691 29.4374 20.0331 29.8944 16.8456C29.994 16.1542 29.994 13.8456 29.8944 13.1542C29.5487 10.7167 28.7753 8.64837 27.4921 6.71478C26.953 5.89447 26.4081 5.2265 25.6464 4.45892C23.3085 2.09173 20.4139 0.632748 17.08 0.14056C16.3593 0.0350914 14.2792 -0.0117836 13.5643 0.0643883ZM20.8886 7.73431C22.8456 7.87494 23.3026 7.94525 23.7714 8.17376C25.1483 8.85345 25.5057 10.0253 25.5878 14.0917C25.6347 16.6406 25.5057 18.7441 25.2245 19.957C25.037 20.7773 24.4511 21.5097 23.7186 21.8554C23.2968 22.0546 22.6054 22.1484 20.7128 22.2773C19.1718 22.3827 10.7518 22.3827 9.2577 22.2773C7.24793 22.1367 6.70301 22.0546 6.24012 21.832C5.15613 21.2988 4.7284 20.4257 4.5116 18.3105C4.41199 17.3144 4.37098 14.1972 4.44715 12.8613C4.58778 10.2304 4.82215 9.35736 5.57215 8.64251C6.07606 8.15619 6.48621 7.99212 7.41199 7.88665C8.11512 7.80462 9.71473 7.69915 10.8983 7.65228C12.0936 7.6054 20.0272 7.66986 20.8886 7.73431Z" fill="black"/>
<path d="M12.2461 14.8007C12.2461 16.7226 12.2695 18.2812 12.293 18.2695C12.3223 18.2577 13.8398 17.4785 15.668 16.5292L18.9902 14.8066L18.7676 14.6777C18.416 14.4726 12.3223 11.3085 12.2812 11.3085C12.2637 11.3085 12.2461 12.8788 12.2461 14.8007Z" fill="black"/>
</g>
<defs>
<clipPath id="clip0_38_75">
<rect width="30" height="30" fill="white"/>
</clipPath>
</defs>
</svg>
